<?xml version="1.0" encoding="utf-8"?>
<!-- Generator: Adobe Illustrator 27.5.0, SVG Export Plug-In . SVG Version: 6.00 Build 0)  -->
<svg version="1.1" xmlns="http://www.w3.org/2000/svg" xmlns:xlink="http://www.w3.org/1999/xlink" x="0px" y="0px"
	 viewBox="0 0 2200 2200" style="enable-background:new 0 0 2200 2200;" xml:space="preserve">
<g id="background">
	<rect style="fill:#FFFFFF;" width="2200" height="2200"/>
</g>
<g id="Objects">
	<g>
		<path style="fill:#FFC217;" d="M1230.107,376.898c8.978,15.186-3.731,34.034-21.161,31.312
			c-35.5-5.543-71.887-8.425-108.946-8.425s-73.446,2.882-108.946,8.425c-17.43,2.722-30.139-16.126-21.161-31.312l112.104-189.627
			c8.096-13.694,27.91-13.694,36.005,0L1230.107,376.898z M659.226,300.552c-13.858-7.811-31.017,2.096-31.181,18.003
			l-2.271,220.274c-0.182,17.641,20.248,27.609,33.982,16.537c27.972-22.55,58.044-43.24,90.137-61.769s65.047-34.227,98.562-47.177
			c16.456-6.358,18.038-29.035,2.67-37.698L659.226,300.552z M318.554,628.044c-15.907,0.164-25.814,17.323-18.003,31.181
			l108.17,191.899c8.663,15.368,31.34,13.786,37.698-2.67c12.95-33.515,28.648-66.469,47.177-98.562s39.219-62.165,61.769-90.137
			c11.072-13.734,1.104-34.164-16.537-33.982L318.554,628.044z M187.27,1081.997c-13.694,8.096-13.694,27.91,0,36.005
			l189.627,112.104c15.186,8.978,34.034-3.731,31.312-21.161c-5.543-35.5-8.425-71.887-8.425-108.946s2.882-73.446,8.425-108.946
			c2.722-17.43-16.126-30.139-31.312-21.161L187.27,1081.997z M300.552,1540.774c-7.811,13.858,2.096,31.017,18.003,31.181
			l220.274,2.271c17.641,0.182,27.609-20.248,16.537-33.982c-22.55-27.972-43.24-58.044-61.769-90.137s-34.227-65.047-47.177-98.562
			c-6.358-16.456-29.035-18.038-37.698-2.67L300.552,1540.774z M628.044,1881.446c0.164,15.907,17.323,25.814,31.181,18.002
			l191.899-108.17c15.368-8.663,13.786-31.34-2.67-37.698c-33.515-12.95-66.469-28.648-98.562-47.177
			c-32.093-18.529-62.165-39.219-90.137-61.769c-13.734-11.072-34.164-1.104-33.982,16.537L628.044,1881.446z M1081.997,2012.73
			c8.096,13.694,27.91,13.694,36.005,0l112.104-189.627c8.978-15.186-3.731-34.034-21.161-31.312
			c-35.5,5.543-71.887,8.425-108.946,8.425s-73.446-2.882-108.946-8.425c-17.43-2.722-30.139,16.126-21.161,31.312L1081.997,2012.73
			z M1540.774,1899.448c13.858,7.812,31.017-2.095,31.181-18.002l2.271-220.274c0.182-17.641-20.248-27.609-33.982-16.537
			c-27.972,22.55-58.044,43.24-90.137,61.769c-32.093,18.529-65.047,34.227-98.562,47.177c-16.456,6.358-18.038,29.035-2.67,37.698
			L1540.774,1899.448z M1881.446,1571.955c15.907-0.164,25.814-17.323,18.002-31.181l-108.17-191.899
			c-8.663-15.368-31.34-13.786-37.698,2.67c-12.95,33.515-28.648,66.469-47.177,98.562c-18.529,32.093-39.219,62.165-61.769,90.137
			c-11.072,13.734-1.104,34.164,16.537,33.982L1881.446,1571.955z M2012.73,1118.003c13.694-8.096,13.694-27.91,0-36.005
			l-189.627-112.104c-15.186-8.978-34.034,3.731-31.312,21.161c5.543,35.5,8.425,71.887,8.425,108.946s-2.882,73.446-8.425,108.946
			c-2.722,17.43,16.126,30.139,31.312,21.161L2012.73,1118.003z M1899.448,659.226c7.812-13.858-2.095-31.017-18.002-31.181
			l-220.274-2.272c-17.641-0.182-27.609,20.248-16.537,33.982c22.55,27.972,43.24,58.044,61.769,90.137
			c18.529,32.093,34.227,65.047,47.177,98.562c6.358,16.456,29.035,18.038,37.698,2.67L1899.448,659.226z M1571.955,318.554
			c-0.164-15.907-17.323-25.814-31.181-18.003l-191.899,108.17c-15.368,8.663-13.786,31.34,2.67,37.698
			c33.515,12.95,66.469,28.648,98.562,47.177c32.093,18.529,62.165,39.219,90.137,61.769c13.734,11.072,34.164,1.104,33.982-16.537
			L1571.955,318.554z"/>
		<path style="fill:#EF9014;" d="M538.828,625.773l-27.487,0.283c-19.641,25.246-37.797,52.13-54.243,80.616
			c-18.529,32.093-34.227,65.047-47.177,98.562c-3.4,8.8-11.467,13.342-19.561,13.317l18.361,32.573
			c8.663,15.368,31.34,13.786,37.698-2.67c12.95-33.515,28.648-66.469,47.177-98.562c18.529-32.093,39.219-62.165,61.769-90.137
			C566.437,646.021,556.469,625.591,538.828,625.773z"/>
		<path style="fill:#EF9014;" d="M848.455,1753.581c-9.145-3.533-18.246-7.279-27.301-11.223c-1.664,2.221-3.828,4.179-6.527,5.7
			l-186.872,105.336l0.289,28.052c0.164,15.907,17.323,25.814,31.181,18.002l191.899-108.17
			C866.493,1782.616,864.91,1759.939,848.455,1753.581z"/>
		<path style="fill:#EF9014;" d="M851.125,408.722l-27.963-15.762c-2.143,4.432-5.894,8.187-11.205,10.239
			c-33.515,12.95-66.469,28.648-98.562,47.177c-31.027,17.914-60.146,37.864-87.324,59.545l-0.298,28.907
			c-0.182,17.641,20.248,27.609,33.982,16.537c27.972-22.55,58.044-43.24,90.137-61.769c32.093-18.529,65.047-34.227,98.562-47.177
			C864.911,440.061,866.493,417.384,851.125,408.722z"/>
		<path style="fill:#EF9014;" d="M2012.73,1081.997l-28.069-16.594c-1.671,3.726-4.475,7.042-8.428,9.379l-180.728,106.843
			c-1.063,9.162-2.301,18.271-3.714,27.321c-2.722,17.43,16.126,30.139,31.312,21.161l189.627-112.104
			C2026.423,1109.907,2026.423,1090.093,2012.73,1081.997z"/>
		<path style="fill:#EF9014;" d="M1754.781,807.904c-3.192,5.662-8.287,9.015-13.766,10.179
			c4.442,10.067,8.632,20.193,12.565,30.371c6.358,16.456,29.035,18.038,37.698,2.67l108.17-191.899
			c7.811-13.858-2.095-31.017-18.003-31.181l-25.135-0.259L1754.781,807.904z"/>
		<path style="fill:#EF9014;" d="M408.21,1208.946c-5.543-35.5-8.425-71.887-8.425-108.946s2.882-73.446,8.425-108.946
			c2.722-17.43-16.126-30.139-31.312-21.161l-8.899,5.261c-3.108,26.776-4.71,54.014-4.71,81.625
			c0,37.058,2.882,73.446,8.425,108.946c2.722,17.43-16.126,30.139-31.312,21.161l-161.558-95.51
			c-4.117,9.182-1.313,20.868,8.428,26.627l189.627,112.104C392.084,1239.085,410.932,1226.376,408.21,1208.946z"/>
		<path style="fill:#EF9014;" d="M493.596,1450.107c-18.529-32.093-34.227-65.047-47.177-98.562
			c-4.016-10.393-14.54-14.846-23.932-12.849c10.185,23.08,21.71,45.844,34.612,68.191c18.529,32.093,39.219,62.165,61.769,90.137
			c11.072,13.734,1.104,34.164-16.537,33.982l-195.139-2.012l-6.64,11.78c-7.811,13.858,2.096,31.017,18.003,31.181l220.274,2.271
			c17.641,0.182,27.609-20.248,16.537-33.982C532.815,1512.272,512.125,1482.201,493.596,1450.107z"/>
		<path style="fill:#EF9014;" d="M1540.774,300.552l-5.027,2.834l1.982,192.223c0.182,17.641-20.248,27.609-33.982,16.537
			c-27.972-22.55-58.044-43.24-90.137-61.769c-23.337-13.473-47.13-25.442-71.261-35.954c-7.816,10.428-4.37,26.756,9.197,31.998
			c33.515,12.95,66.469,28.648,98.562,47.177c32.093,18.529,62.165,39.219,90.137,61.769c13.734,11.072,34.164,1.104,33.982-16.537
			l-2.271-220.274C1571.791,302.647,1554.632,292.74,1540.774,300.552z"/>
		<path style="fill:#EF9014;" d="M1208.946,1791.79c-8.075,1.261-16.198,2.377-24.362,3.359l-103.078,174.359
			c-4.242,7.175-11.701,10.584-19.005,10.24l19.498,32.981c8.096,13.694,27.91,13.694,36.005,0l112.104-189.627
			C1239.085,1807.916,1226.376,1789.068,1208.946,1791.79z"/>
		<path style="fill:#EF9014;" d="M1791.278,1348.875c-4.03-7.15-11.094-10.626-18.136-10.647l89.809,159.326
			c7.811,13.858-2.096,31.017-18.003,31.181l-192.787,1.988c-2.487,3.197-4.991,6.377-7.526,9.522
			c-11.072,13.734-1.104,34.164,16.537,33.982l220.274-2.271c15.907-0.164,25.814-17.323,18.003-31.181L1791.278,1348.875z"/>
		<path style="fill:#EF9014;" d="M1540.245,1644.635c-0.929,0.749-1.88,1.479-2.813,2.224l-1.973,191.367
			c-0.164,15.907-17.323,25.814-31.181,18.003l-163.936-92.408c-4.497,9.3-1.874,21.592,8.535,27.459l191.899,108.17
			c13.858,7.811,31.017-2.096,31.181-18.002l2.271-220.274C1574.409,1643.531,1553.979,1633.563,1540.245,1644.635z"/>
		<path style="fill:#EF9014;" d="M1118.003,187.27c-3.854-6.519-10.363-9.927-17-10.24l92.607,156.646
			c8.978,15.186-3.731,34.034-21.161,31.312c-35.5-5.543-71.887-8.425-108.946-8.425c-28.629,0-56.855,1.727-84.583,5.065
			l-9.026,15.268c-8.978,15.186,3.731,34.034,21.161,31.312c35.5-5.543,71.887-8.425,108.946-8.425s73.446,2.882,108.946,8.425
			c17.43,2.722,30.139-16.126,21.161-31.312L1118.003,187.27z"/>
		<circle style="fill:#FFC217;" cx="1100" cy="1100" r="630.06"/>
		<path style="fill:#F4AA16;" d="M1730.06,1100c0,347.974-282.086,630.06-630.06,630.06S469.94,1447.974,469.94,1100
			c0-49.886,5.801-98.428,16.76-144.962c-0.922,12.505-1.393,25.135-1.393,37.871c0,280.338,227.264,507.602,507.602,507.602
			s507.602-227.264,507.602-507.602s-227.264-507.602-507.602-507.602c-12.736,0-25.366,0.471-37.871,1.393
			c46.534-10.959,95.076-16.76,144.962-16.76C1447.974,469.94,1730.06,752.026,1730.06,1100z"/>
		<path style="fill:#EF9014;" d="M1730.06,1100c0,347.974-282.086,630.06-630.06,630.06S469.94,1447.974,469.94,1100
			c0-6.627,0.106-13.235,0.307-19.814c25.433,286.754,266.277,511.569,559.64,511.569c310.314,0,561.868-251.554,561.868-561.868
			c0-293.362-224.814-534.207-511.569-559.64c6.579-0.202,13.187-0.307,19.814-0.307C1447.974,469.94,1730.06,752.026,1730.06,1100z
			"/>
		<path d="M1100,1745.428c-87.125,0-171.652-17.067-251.234-50.728c-76.858-32.508-145.882-79.044-205.152-138.313
			c-59.27-59.271-105.806-128.294-138.313-205.152c-33.66-79.582-50.728-164.109-50.728-251.234
			c0-87.125,17.067-171.653,50.728-251.234c32.508-76.859,79.044-145.882,138.313-205.152
			c59.271-59.27,128.294-105.806,205.152-138.314c79.582-33.66,164.109-50.727,251.234-50.727s171.652,17.067,251.234,50.727
			c76.858,32.509,145.882,79.044,205.152,138.314c59.27,59.27,105.806,128.293,138.313,205.152
			c33.66,79.582,50.728,164.109,50.728,251.234c0,87.125-17.067,171.652-50.728,251.234
			c-32.508,76.858-79.044,145.882-138.313,205.152c-59.271,59.27-128.294,105.806-205.152,138.313
			C1271.652,1728.36,1187.125,1745.428,1100,1745.428z M1100,485.307c-82.99,0-163.489,16.25-239.262,48.299
			c-73.195,30.959-138.935,75.283-195.392,131.74c-56.458,56.458-100.781,122.197-131.74,195.392
			c-32.05,75.773-48.3,156.272-48.3,239.262c0,82.99,16.25,163.489,48.3,239.262c30.959,73.195,75.282,138.935,131.74,195.392
			c56.457,56.458,122.196,100.781,195.392,131.74c75.772,32.05,156.271,48.3,239.262,48.3s163.489-16.25,239.262-48.3
			c73.195-30.959,138.935-75.282,195.392-131.74c56.458-56.457,100.781-122.196,131.74-195.392
			c32.05-75.772,48.3-156.271,48.3-239.262c0-82.99-16.25-163.489-48.3-239.262c-30.959-73.195-75.282-138.935-131.74-195.392
			c-56.457-56.457-122.196-100.781-195.392-131.74C1263.489,501.557,1182.99,485.307,1100,485.307z"/>
		<path d="M1212.298,423.84c-1.893,0-3.804-0.147-5.724-0.446c-35.021-5.468-70.878-8.241-106.574-8.241
			c-35.697,0-71.555,2.773-106.574,8.241c-13.981,2.179-27.603-3.743-35.55-15.464c-7.969-11.75-8.433-26.638-1.211-38.853
			l112.104-189.626c6.596-11.157,18.271-17.817,31.231-17.817s24.636,6.661,31.231,17.817l112.104,189.627
			c7.222,12.214,6.758,27.102-1.211,38.852C1235.268,418.041,1224.187,423.839,1212.298,423.84z M1100,384.418
			c37.279,0,74.731,2.896,111.316,8.609c2.972,0.46,4.641-1.271,5.37-2.347c0.741-1.093,1.752-3.322,0.191-5.961c0,0,0,0,0,0
			l-112.104-189.627c-1.401-2.37-3.593-2.723-4.774-2.723s-3.373,0.354-4.774,2.724L983.122,384.718
			c-1.561,2.64-0.55,4.869,0.191,5.962c0.73,1.076,2.401,2.811,5.37,2.347C1025.268,387.314,1062.72,384.418,1100,384.418z"/>
		<path d="M646.765,575.395c-5.372,0-10.789-1.214-15.885-3.684c-12.774-6.192-20.62-18.853-20.473-33.042l2.271-220.274
			c0.134-12.959,6.914-24.565,18.139-31.045c11.223-6.481,24.664-6.55,35.954-0.185l191.899,108.169
			c12.36,6.967,19.402,20.092,18.377,34.251c-1.022,14.125-9.856,26.068-23.054,31.168c-33.064,12.775-65.504,28.303-96.418,46.151
			c-30.913,17.848-60.58,38.178-88.177,60.424C662.789,572.659,654.827,575.394,646.765,575.395z M648.971,313.194
			c-1.198,0-2.179,0.421-2.786,0.772c-1.023,0.591-2.745,1.993-2.773,4.746l-2.271,220.274c-0.031,3.066,1.958,4.49,3.146,5.066
			c1.17,0.568,3.48,1.236,5.824-0.652c28.828-23.24,59.814-44.475,92.099-63.114c32.284-18.64,66.168-34.857,100.707-48.203
			c2.807-1.084,3.384-3.422,3.478-4.718c0.096-1.317-0.144-3.752-2.814-5.258L651.68,313.939
			C650.707,313.391,649.788,313.194,648.971,313.194z"/>
		<path d="M426.872,877.146c-13.107,0.001-25.017-6.908-31.537-18.476l-108.17-191.899c-6.364-11.29-6.295-24.73,0.186-35.955
			c6.48-11.225,18.086-18.005,31.045-18.139l220.274-2.271c0.13-0.001,0.261-0.002,0.39-0.002c14.031,0,26.517,7.818,32.651,20.477
			c6.177,12.744,4.498,27.504-4.382,38.519c-22.245,27.593-42.575,57.26-60.425,88.176c-17.849,30.916-33.376,63.355-46.15,96.417
			c-5.1,13.198-17.042,22.032-31.167,23.055C428.678,877.114,427.771,877.146,426.872,877.146z M539.059,641.139
			c-0.023,0-0.048,0-0.072,0l0,0l-220.273,2.271c-2.753,0.028-4.155,1.749-4.746,2.772s-1.38,3.098-0.029,5.496l108.17,191.899
			c1.505,2.671,3.94,2.913,5.258,2.815c1.296-0.094,3.633-0.67,4.718-3.478c13.345-34.538,29.563-68.421,48.202-100.707
			c18.642-32.287,39.876-63.273,63.114-92.099c1.889-2.342,1.22-4.654,0.652-5.824C543.482,643.107,542.075,641.139,539.059,641.139
			z M538.828,625.773h0.01H538.828z"/>
		<path d="M387.566,1248.443c-6.352,0-12.719-1.696-18.49-5.108L179.45,1131.231c-11.157-6.596-17.817-18.271-17.817-31.232
			s6.661-24.635,17.817-31.23l189.627-112.104l0,0c12.215-7.221,27.102-6.757,38.853,1.211c11.721,7.949,17.646,21.57,15.464,35.549
			c-5.468,35.021-8.241,70.878-8.241,106.575c0,35.696,2.773,71.554,8.241,106.574c2.183,13.979-3.743,27.602-15.464,35.55
			C401.73,1246.328,394.658,1248.443,387.566,1248.443z M384.718,983.122l-189.627,112.104c-2.37,1.401-2.723,3.592-2.723,4.774
			c0,1.182,0.354,3.373,2.724,4.774l189.626,112.104c2.639,1.56,4.868,0.551,5.962-0.191c1.076-0.729,2.811-2.397,2.347-5.37
			c-5.712-36.585-8.609-74.037-8.609-111.316s2.896-74.731,8.609-111.316c0.464-2.973-1.271-4.641-2.347-5.37
			C389.587,982.573,387.359,981.562,384.718,983.122z"/>
		<path d="M539.061,1589.595c-0.131,0-0.261,0-0.392-0.002l-220.273-2.271c-12.959-0.134-24.565-6.914-31.045-18.139
			c-6.48-11.224-6.549-24.665-0.185-35.954l108.169-191.899c6.968-12.36,20.104-19.408,34.251-18.377
			c14.125,1.022,26.068,9.856,31.168,23.054c12.774,33.061,28.301,65.501,46.15,96.418c17.849,30.914,38.178,60.581,60.425,88.177
			c8.88,11.014,10.56,25.773,4.383,38.518C565.576,1581.776,553.09,1589.595,539.061,1589.595z M426.909,1353.59
			c-1.369,0-3.455,0.445-4.8,2.831l-108.17,191.899c-1.352,2.397-0.563,4.473,0.028,5.495c0.591,1.023,1.993,2.745,4.746,2.773
			l220.273,2.271c0.024,0,0.049,0,0.072,0c3.018,0,4.424-1.968,4.995-3.146c0.567-1.17,1.236-3.481-0.652-5.823
			c-23.24-28.828-44.475-59.814-63.114-92.1c-18.641-32.288-34.858-66.171-48.202-100.707c-1.084-2.807-3.422-3.384-4.718-3.478
			C427.226,1353.597,427.072,1353.59,426.909,1353.59z M408.722,1348.875h0.01H408.722z"/>
		<path d="M648.953,1917.56c-6.236,0-12.468-1.637-18.136-4.909c-11.225-6.48-18.005-18.087-18.139-31.047l-2.271-220.272
			c-0.147-14.188,7.698-26.85,20.474-33.042c12.744-6.178,27.504-4.498,38.519,4.382c27.597,22.248,57.264,42.577,88.177,60.424
			c30.917,17.85,63.356,33.377,96.417,46.15c13.198,5.101,22.032,17.043,23.055,31.168c1.025,14.16-6.017,27.284-18.377,34.252
			l-191.899,108.17C661.184,1915.985,655.065,1917.56,648.953,1917.56z M646.769,1655.352c-1.021,0-1.896,0.31-2.482,0.595
			c-1.188,0.576-3.178,2-3.146,5.066v0.001l2.271,220.273c0.028,2.753,1.75,4.155,2.773,4.746c1.021,0.59,3.096,1.379,5.495,0.028
			l191.899-108.17c2.671-1.506,2.91-3.941,2.814-5.259c-0.094-1.297-0.671-3.634-3.478-4.719
			c-34.537-13.344-68.42-29.562-100.707-48.202c-32.283-18.638-63.27-39.872-92.099-63.113
			C648.942,1655.657,647.783,1655.352,646.769,1655.352z"/>
		<path d="M1100,2038.367c-12.961,0-24.636-6.66-31.231-17.817l-112.104-189.627c-7.222-12.214-6.758-27.102,1.211-38.852
			c7.948-11.722,21.569-17.649,35.55-15.465c35.02,5.469,70.877,8.241,106.574,8.241c35.696,0,71.554-2.772,106.574-8.241
			c13.981-2.186,27.603,3.742,35.55,15.465c7.969,11.75,8.433,26.638,1.211,38.853l-112.104,189.626
			C1124.636,2031.707,1112.961,2038.367,1100,2038.367z M987.718,1806.896c-2.375,0-3.758,1.471-4.404,2.424
			c-0.741,1.094-1.752,3.321-0.191,5.961c0,0.001,0,0.001,0,0.001l112.104,189.627c1.401,2.37,3.593,2.724,4.774,2.724
			s3.373-0.354,4.774-2.724l112.104-189.627c1.561-2.641,0.55-4.868-0.191-5.962c-0.729-1.076-2.396-2.808-5.37-2.347
			c-36.585,5.712-74.037,8.608-111.316,8.608c-37.28,0-74.732-2.896-111.316-8.608
			C988.345,1806.921,988.023,1806.896,987.718,1806.896z"/>
		<path d="M1551.047,1917.56c-6.113,0-12.229-1.574-17.818-4.725l-191.899-108.17l0,0c-12.361-6.968-19.402-20.093-18.377-34.253
			c1.023-14.125,9.857-26.067,23.055-31.166c33.063-12.774,65.502-28.303,96.417-46.151c30.913-17.847,60.58-38.176,88.177-60.424
			c11.014-8.879,25.772-10.56,38.518-4.383c12.776,6.192,20.622,18.854,20.475,33.043l-2.271,220.272
			c-0.134,12.96-6.914,24.566-18.139,31.047C1563.516,1915.922,1557.282,1917.56,1551.047,1917.56z M1356.421,1777.892
			l191.899,108.17c2.398,1.352,4.472,0.562,5.495-0.028c1.023-0.591,2.745-1.993,2.773-4.746l2.271-220.273
			c0.031-3.067-1.958-4.491-3.146-5.067c-1.17-0.566-3.482-1.236-5.823,0.652c-28.83,23.241-59.816,44.476-92.1,63.113
			c-32.285,18.64-66.168,34.858-100.707,48.204c-2.807,1.084-3.384,3.42-3.478,4.717
			C1353.511,1773.95,1353.75,1776.386,1356.421,1777.892L1356.421,1777.892z"/>
		<path d="M1660.939,1589.595c-14.03,0-26.515-7.817-32.65-20.476c-6.178-12.744-4.498-27.504,4.382-38.519
			c22.248-27.597,42.577-57.264,60.424-88.177c17.85-30.917,33.377-63.356,46.15-96.417c5.101-13.198,17.043-22.032,31.168-23.055
			c14.149-1.023,27.284,6.016,34.252,18.377l108.17,191.899c6.364,11.289,6.295,24.73-0.185,35.954
			c-6.48,11.225-18.087,18.005-31.047,18.139l-220.272,2.271C1661.201,1589.595,1661.069,1589.595,1660.939,1589.595z
			 M1773.091,1353.59c-0.164,0-0.317,0.007-0.458,0.017c-1.297,0.094-3.634,0.671-4.719,3.478
			c-13.344,34.537-29.562,68.42-48.202,100.707c-18.638,32.283-39.872,63.27-63.113,92.099c-1.889,2.343-1.22,4.654-0.652,5.824
			c0.576,1.188,2.037,3.176,5.066,3.146h0.001l220.273-2.271c2.753-0.028,4.155-1.75,4.746-2.773
			c0.591-1.022,1.38-3.098,0.028-5.495l-108.17-191.899C1776.547,1354.035,1774.46,1353.59,1773.091,1353.59z"/>
		<path d="M1812.434,1248.443c-7.093,0-14.163-2.115-20.362-6.319c-11.722-7.948-17.647-21.57-15.465-35.55
			c5.469-35.02,8.241-70.877,8.241-106.574c0-35.697-2.772-71.554-8.241-106.575c-2.183-13.979,3.743-27.6,15.464-35.549
			c11.749-7.968,26.637-8.433,38.853-1.211l189.627,112.104c11.156,6.595,17.817,18.27,17.817,31.23
			c0.001,12.96-6.66,24.636-17.817,31.232l-189.627,112.104C1825.153,1246.746,1818.784,1248.443,1812.434,1248.443z
			 M1812.453,982.3c-1.361,0-2.461,0.558-3.133,1.013c-1.076,0.729-2.812,2.397-2.347,5.37c5.712,36.585,8.608,74.037,8.608,111.316
			c0,37.28-2.896,74.732-8.608,111.316c-0.465,2.973,1.271,4.641,2.347,5.37c1.093,0.742,3.319,1.752,5.961,0.191
			c0.001,0,0.001,0,0.001,0l189.627-112.104c2.37-1.401,2.724-3.593,2.724-4.774s-0.354-3.373-2.724-4.773l-189.627-112.105
			C1814.265,982.52,1813.308,982.3,1812.453,982.3z"/>
		<path d="M1773.128,877.146c-0.9,0-1.806-0.033-2.717-0.099c-14.124-1.023-26.066-9.857-31.165-23.055
			c-12.775-33.064-28.304-65.503-46.151-96.417c-17.848-30.915-38.178-60.582-60.424-88.176
			c-8.88-11.015-10.559-25.774-4.383-38.518c6.136-12.659,18.622-20.478,32.652-20.478c0.13,0,0.26,0.001,0.39,0.002l220.273,2.271
			c12.96,0.134,24.566,6.915,31.047,18.139c6.479,11.224,6.549,24.666,0.185,35.956l-108.17,191.898v0
			C1798.146,870.237,1786.233,877.146,1773.128,877.146z M1791.278,851.125h0.01H1791.278z M1660.941,641.139
			c-3.018,0-4.424,1.968-4.995,3.147c-0.567,1.169-1.236,3.481,0.652,5.824c23.239,28.827,44.474,59.813,63.113,92.099
			c18.639,32.284,34.857,66.166,48.203,100.707c1.085,2.807,3.421,3.383,4.718,3.478c1.313,0.095,3.752-0.143,5.259-2.815
			l108.17-191.898c1.352-2.398,0.563-4.473-0.028-5.496c-0.591-1.023-1.993-2.745-4.746-2.773l-220.273-2.271
			C1660.989,641.139,1660.965,641.139,1660.941,641.139z"/>
		<path d="M1553.235,575.395c-8.063,0-16.023-2.735-22.635-8.065c-27.597-22.247-57.264-42.577-88.177-60.424
			c-30.914-17.848-63.354-33.375-96.417-46.151c-13.198-5.1-22.032-17.042-23.055-31.168c-1.025-14.16,6.017-27.284,18.377-34.251
			l191.899-108.17c11.29-6.363,24.731-6.294,35.954,0.186c11.225,6.48,18.005,18.086,18.139,31.045l2.271,220.274
			c0.147,14.188-7.698,26.849-20.473,33.042C1564.024,574.18,1558.606,575.394,1553.235,575.395z M1551.029,313.194
			c-0.817,0-1.736,0.196-2.709,0.744l-191.899,108.17c-2.671,1.505-2.91,3.94-2.814,5.258c0.094,1.296,0.671,3.634,3.478,4.718
			c34.539,13.345,68.423,29.563,100.707,48.203c32.284,18.639,63.271,39.874,92.099,63.114c2.345,1.889,4.655,1.221,5.824,0.652
			c1.188-0.576,3.178-2,3.146-5.066c0,0,0,0,0,0l-2.271-220.274c-0.028-2.753-1.75-4.155-2.773-4.746
			C1553.208,313.616,1552.228,313.194,1551.029,313.194z"/>
		<path style="fill:#FFFFFF;" d="M663.289,956.863c-0.24,2.171-0.567,4.332-0.932,6.474c-3.842,22.984-10.728,45.42-20.487,66.761
			c-3.765,8.222-8.078,16.443-15.079,22.801c-7.011,6.349-17.202,10.652-27.719,9.441c-12.736-1.489-23.368-10.853-28.132-21.274
			c-4.754-10.421-4.668-21.735-3.621-32.588c1.882-19.593,6.637-38.822,14.128-57.109c4.61-11.266,10.834-22.772,22.561-29.006
			c10.027-5.321,24.53-6.012,37.419-0.154C656.24,928.952,664.855,943.004,663.289,956.863z"/>
		<path style="fill:#FFFFFF;" d="M893.569,720.369c-127.338,75.108-198.094,209.197-233.507,149.15
			c-35.422-60.038,39.1-169.598,166.428-244.705c127.338-75.117,259.266-87.334,294.688-27.296
			C1156.59,657.555,1020.906,645.252,893.569,720.369z"/>
	</g>
</g>
</svg>
